<svg width="197" height="184" viewBox="0 0 197 184" fill="none" xmlns="http://www.w3.org/2000/svg">
<mask id="path-1-inside-1" fill="white">
<path d="M136.963 5.12793C120.248 -0.862078 102.181 -1.62262 85.0456 2.94249C67.9103 7.50761 52.4768 17.1933 40.6967 30.7748C28.9165 44.3564 21.3189 61.2237 18.8645 79.2438C16.4101 97.2639 19.2092 115.628 26.9079 132.012C34.6065 148.397 46.8589 162.067 62.1157 171.294C77.3725 180.521 94.9484 184.89 112.621 183.849C130.293 182.808 147.268 176.404 161.4 165.445C175.531 154.487 186.184 139.468 192.011 122.286L146.883 106.114C144.168 114.12 139.203 121.12 132.618 126.226C126.033 131.333 118.122 134.318 109.886 134.803C101.651 135.288 93.4603 133.252 86.3505 128.952C79.2407 124.652 73.5309 118.282 69.9433 110.646C66.3556 103.011 65.0512 94.453 66.195 86.0555C67.3387 77.6579 70.8793 69.7976 76.369 63.4685C81.8586 57.1394 89.0508 52.6257 97.036 50.4983C105.021 48.3709 113.441 48.7254 121.23 51.5168L136.963 5.12793Z"/>
</mask>
<path d="M136.963 5.12793C120.248 -0.862078 102.181 -1.62262 85.0456 2.94249C67.9103 7.50761 52.4768 17.1933 40.6967 30.7748C28.9165 44.3564 21.3189 61.2237 18.8645 79.2438C16.4101 97.2639 19.2092 115.628 26.9079 132.012C34.6065 148.397 46.8589 162.067 62.1157 171.294C77.3725 180.521 94.9484 184.89 112.621 183.849C130.293 182.808 147.268 176.404 161.4 165.445C175.531 154.487 186.184 139.468 192.011 122.286L146.883 106.114C144.168 114.12 139.203 121.12 132.618 126.226C126.033 131.333 118.122 134.318 109.886 134.803C101.651 135.288 93.4603 133.252 86.3505 128.952C79.2407 124.652 73.5309 118.282 69.9433 110.646C66.3556 103.011 65.0512 94.453 66.195 86.0555C67.3387 77.6579 70.8793 69.7976 76.369 63.4685C81.8586 57.1394 89.0508 52.6257 97.036 50.4983C105.021 48.3709 113.441 48.7254 121.23 51.5168L136.963 5.12793Z" fill="black" stroke="#3F3A3A" stroke-width="2" mask="url(#path-1-inside-1)"/>
<mask id="path-2-inside-2" fill="white">
<path d="M118.963 5.12793C102.248 -0.862078 84.1809 -1.62262 67.0456 2.94249C49.9103 7.50761 34.4768 17.1933 22.6967 30.7748C10.9165 44.3564 3.31888 61.2237 0.864496 79.2438C-1.58988 97.2639 1.20923 115.628 8.90789 132.012C16.6065 148.397 28.8589 162.067 44.1157 171.294C59.3725 180.521 76.9484 184.89 94.6208 183.849C112.293 182.808 129.268 176.404 143.4 165.445C157.531 154.487 168.184 139.468 174.011 122.286L128.883 106.114C126.168 114.12 121.203 121.12 114.618 126.226C108.033 131.333 100.122 134.318 91.8863 134.803C83.6508 135.288 75.4603 133.252 68.3505 128.952C61.2407 124.652 55.5309 118.282 51.9433 110.646C48.3556 103.011 47.0512 94.453 48.195 86.0555C49.3387 77.6579 52.8793 69.7976 58.369 63.4685C63.8586 57.1394 71.0508 52.6257 79.036 50.4983C87.0212 48.3709 95.4408 48.7254 103.23 51.5168L118.963 5.12793Z"/>
</mask>
<path d="M118.963 5.12793C102.248 -0.862078 84.1809 -1.62262 67.0456 2.94249C49.9103 7.50761 34.4768 17.1933 22.6967 30.7748C10.9165 44.3564 3.31888 61.2237 0.864496 79.2438C-1.58988 97.2639 1.20923 115.628 8.90789 132.012C16.6065 148.397 28.8589 162.067 44.1157 171.294C59.3725 180.521 76.9484 184.89 94.6208 183.849C112.293 182.808 129.268 176.404 143.4 165.445C157.531 154.487 168.184 139.468 174.011 122.286L128.883 106.114C126.168 114.12 121.203 121.12 114.618 126.226C108.033 131.333 100.122 134.318 91.8863 134.803C83.6508 135.288 75.4603 133.252 68.3505 128.952C61.2407 124.652 55.5309 118.282 51.9433 110.646C48.3556 103.011 47.0512 94.453 48.195 86.0555C49.3387 77.6579 52.8793 69.7976 58.369 63.4685C63.8586 57.1394 71.0508 52.6257 79.036 50.4983C87.0212 48.3709 95.4408 48.7254 103.23 51.5168L118.963 5.12793Z" fill="black" stroke="#3F3A3A" stroke-width="2" mask="url(#path-2-inside-2)"/>
</svg>
